<svg xmlns="http://www.w3.org/2000/svg" width="128" height="128" viewBox="0 0 128 128"><g fill="none"><circle cx="64" cy="64" r="64" fill="#457DA7"/><path d="M76.4 63.9C76.4 56.8 70.7 51 63.6 51 56.5 51 50.7 56.8 50.7 63.9 50.7 70.9 56.5 76.7 63.6 76.7 70.7 76.7 76.4 70.9 76.4 63.9ZM83.4 63.9C83.4 74.8 74.5 83.6 63.6 83.6 52.6 83.6 43.8 74.8 43.8 63.9 43.8 52.9 52.6 44.1 63.6 44.1 74.5 44.1 83.4 52.9 83.4 63.9ZM88.8 43.3C88.8 45.8 86.7 47.9 84.2 47.9 81.6 47.9 79.5 45.8 79.5 43.3 79.5 40.7 81.6 38.6 84.2 38.6 86.7 38.6 88.8 40.7 88.8 43.3ZM63.6 32.2C57.9 32.2 45.9 31.8 40.8 33.8 39.1 34.5 37.8 35.3 36.4 36.7 35 38 34.2 39.3 33.5 41.1 31.5 46.2 31.9 58.2 31.9 63.9 31.9 69.5 31.5 81.5 33.5 86.6 34.2 88.4 35 89.7 36.4 91 37.8 92.4 39.1 93.2 40.8 93.9 45.9 95.9 57.9 95.5 63.6 95.5 69.2 95.5 81.3 95.9 86.3 93.9 88.1 93.2 89.4 92.4 90.7 91 92.1 89.7 93 88.4 93.7 86.6 95.7 81.5 95.2 69.5 95.2 63.9 95.2 58.2 95.7 46.2 93.7 41.1 93 39.3 92.1 38 90.7 36.7 89.4 35.3 88.1 34.5 86.3 33.8 81.3 31.8 69.2 32.2 63.6 32.2ZM102.1 63.9C102.1 69.2 102.2 74.5 101.9 79.8 101.6 86 100.2 91.4 95.7 95.9 91.1 100.5 85.7 101.9 79.5 102.2 74.2 102.5 68.9 102.4 63.6 102.4 58.2 102.4 53 102.5 47.7 102.2 41.5 101.9 36 100.5 31.5 95.9 27 91.4 25.6 86 25.3 79.8 24.9 74.5 25 69.2 25 63.9 25 58.5 24.9 53.3 25.3 47.9 25.6 41.8 27 36.3 31.5 31.8 36 27.2 41.5 25.8 47.7 25.5 53 25.2 58.2 25.3 63.6 25.3 68.9 25.3 74.2 25.2 79.5 25.5 85.7 25.8 91.1 27.2 95.7 31.8 100.2 36.3 101.6 41.8 101.9 47.9 102.2 53.3 102.1 58.5 102.1 63.9Z" fill="#FFF"/></g></svg>
