<svg xmlns="http://www.w3.org/2000/svg" width="128" height="128" viewBox="0 0 128 128"><g fill="none"><circle cx="64" cy="64" r="64" fill="#2BA9F3"/><path d="M105.4 40.3C102.4 41.6 99.3 42.5 96 42.9 99.4 40.9 101.9 37.7 103.2 33.9 100 35.8 96.5 37.1 92.9 37.8 89.9 34.7 85.7 32.7 81 32.7 72 32.7 64.8 40 64.8 48.9 64.8 50.2 64.9 51.4 65.2 52.7 51.7 51.9 39.7 45.5 31.7 35.7 30.3 38.1 29.5 40.9 29.5 43.9 29.5 49.5 32.4 54.5 36.8 57.4 34.1 57.3 31.6 56.5 29.4 55.3L29.4 55.5C29.4 63.4 35 69.9 42.4 71.4 41.1 71.8 39.6 72 38.2 72 37.1 72 36.1 71.9 35.1 71.7 37.2 78.2 43.1 82.8 50.3 83 44.7 87.4 37.7 89.9 30.1 89.9 28.8 89.9 27.5 89.9 26.2 89.7 33.4 94.3 41.9 97 51.1 97 81 97 97.3 72.3 97.3 50.8 97.3 50.1 97.3 49.4 97.2 48.7 100.4 46.4 103.2 43.6 105.4 40.3Z" fill="#FFF"/></g></svg>
