<?xml version="1.0" encoding="UTF-8"?>
<svg width="550px" height="361px" viewBox="0 0 550 361" version="1.1" xmlns="http://www.w3.org/2000/svg" xmlns:xlink="http://www.w3.org/1999/xlink">
    <!-- Generator: Sketch 45.2 (43514) - http://www.bohemiancoding.com/sketch -->
    <title>tc-techcrunch</title>
    <desc>Created with Sketch.</desc>
    <defs></defs>
    <g id="Page-1" stroke="none" stroke-width="1" fill="none" fill-rule="evenodd">
        <g id="tc-techcrunch">
            <path d="M346,70 L482,70 L482,0 L344.490234,0 L344.490234,68 L276,68 L276,206 L482,206 L482,136 L346,136 L346,70 Z M208,70 L276,70 L276,0 L70,0 L70,70 L138,70 L138,206 L208,206 L208,70 Z" id="Combined-Shape" fill="#4E9810"></path>
            <path d="M23.46,358 L23.46,294.98 L0.46,294.98 L0.46,281.64 L62.56,281.64 L62.56,294.98 L39.445,294.98 L39.445,358 L23.46,358 Z M90.045,324.19 C89.9683329,322.11999 89.6041699,320.299175 88.9525,318.7275 C88.3008301,317.155825 87.4383387,315.852505 86.365,314.8175 C85.2916613,313.782495 84.0650069,313.015836 82.685,312.5175 C81.3049931,312.019164 79.886674,311.77 78.43,311.77 C75.4399851,311.77 72.8525109,312.862489 70.6675,315.0475 C68.4824891,317.232511 67.2366682,320.27998 66.93,324.19 L90.045,324.19 Z M66.47,333.62 C66.7000011,337.913355 67.945822,341.324987 70.2075,343.855 C72.469178,346.385013 75.4399816,347.65 79.12,347.65 C81.5733456,347.65 83.7391573,347.094172 85.6175,345.9825 C87.4958427,344.870828 88.7033306,343.318343 89.24,341.325 L104.65,341.325 C102.886658,347.151696 99.8200218,351.636651 95.45,354.78 C91.0799781,357.923349 85.866697,359.495 79.81,359.495 C60.9499057,359.495 51.52,349.221769 51.52,328.675 C51.52,324.304978 52.1333272,320.356684 53.36,316.83 C54.5866728,313.303316 56.369155,310.275013 58.7075,307.745 C61.045845,305.214987 63.9016498,303.279173 67.275,301.9375 C70.6483502,300.595827 74.5199781,299.925 78.89,299.925 C87.6300437,299.925 94.2424776,302.723305 98.7275,308.32 C103.212522,313.916695 105.455,322.349944 105.455,333.62 L66.47,333.62 Z M161,337.53 C160.616665,340.826683 159.677507,343.816653 158.1825,346.5 C156.687493,349.183347 154.790011,351.483324 152.49,353.4 C150.189989,355.316676 147.564181,356.811661 144.6125,357.885 C141.660819,358.958339 138.460017,359.495 135.01,359.495 C131.176648,359.495 127.669183,358.862506 124.4875,357.5975 C121.305817,356.332494 118.565011,354.415846 116.265,351.8475 C113.964989,349.279154 112.182506,346.097519 110.9175,342.3025 C109.652494,338.507481 109.02,334.080025 109.02,329.02 C109.02,323.959975 109.652494,319.590018 110.9175,315.91 C112.182506,312.229982 113.964989,309.220845 116.265,306.8825 C118.565011,304.544155 121.34415,302.800006 124.6025,301.65 C127.86085,300.499994 131.483313,299.925 135.47,299.925 C139.150018,299.925 142.504152,300.423328 145.5325,301.42 C148.560848,302.416672 151.205822,303.873324 153.4675,305.79 C155.729178,307.706676 157.51166,310.006653 158.815,312.69 C160.11834,315.373347 160.884999,318.363317 161.115,321.66 L146.05,321.66 C145.666665,318.746652 144.49751,316.465842 142.5425,314.8175 C140.58749,313.169158 138.191681,312.345 135.355,312.345 C133.744992,312.345 132.250007,312.613331 130.87,313.15 C129.489993,313.686669 128.282505,314.587494 127.2475,315.8525 C126.212495,317.117506 125.388336,318.804156 124.775,320.9125 C124.161664,323.020844 123.855,325.608318 123.855,328.675 C123.855,334.885031 124.966656,339.484985 127.19,342.475 C129.413344,345.465015 131.981652,346.96 134.895,346.96 C137.808348,346.96 140.29999,346.155008 142.37,344.545 C144.44001,342.934992 145.628332,340.596682 145.935,337.53 L161,337.53 Z M201.02,358 L201.02,322.925 C201.02,318.631645 200.272507,315.699175 198.7775,314.1275 C197.282493,312.555825 194.810017,311.77 191.36,311.77 C189.519991,311.77 187.871674,312.134163 186.415,312.8625 C184.958326,313.590837 183.731672,314.587494 182.735,315.8525 C181.738328,317.117506 180.990836,318.574158 180.4925,320.2225 C179.994164,321.870842 179.745,323.653324 179.745,325.57 L179.745,358 L164.795,358 L164.795,280.72 L179.745,280.72 L179.745,308.78 C180.281669,307.553327 181.105828,306.384172 182.2175,305.2725 C183.329172,304.160828 184.613326,303.221671 186.07,302.455 C187.526674,301.68833 189.136658,301.075002 190.9,300.615 C192.663342,300.154998 194.503324,299.925 196.42,299.925 C202.246696,299.925 206.980815,301.515817 210.6225,304.6975 C214.264185,307.879183 216.085,312.306638 216.085,317.98 L216.085,358 L201.02,358 Z" id="Tech" fill="#4E9810"></path>
            <path d="M289.92,331.78 C289.076662,336.150022 287.735009,340.098316 285.895,343.625 C284.054991,347.151684 281.735847,350.179987 278.9375,352.71 C276.139153,355.240013 272.900018,357.194993 269.22,358.575 C265.539982,359.955007 261.476689,360.645 257.03,360.645 C252.046642,360.645 247.389188,359.801675 243.0575,358.115 C238.725812,356.428325 234.988349,353.89835 231.845,350.525 C228.701651,347.15165 226.229176,342.992525 224.4275,338.0475 C222.625824,333.102475 221.725,327.333366 221.725,320.74 C221.725,314.299968 222.549158,308.492526 224.1975,303.3175 C225.845842,298.142474 228.203318,293.772518 231.27,290.2075 C234.336682,286.642482 238.074145,283.901676 242.4825,281.985 C246.890855,280.068324 251.816639,279.11 257.26,279.11 C262.013357,279.11 266.325814,279.81916 270.1975,281.2375 C274.069186,282.65584 277.404153,284.610821 280.2025,287.1025 C283.000847,289.594179 285.224158,292.52665 286.8725,295.9 C288.520842,299.27335 289.536665,302.876648 289.92,306.71 L273.935,306.71 C272.861661,302.339978 270.791682,298.947512 267.725,296.5325 C264.658318,294.117488 261.208353,292.91 257.375,292.91 C250.704967,292.91 245.798349,295.305809 242.655,300.0975 C239.511651,304.889191 237.94,311.463292 237.94,319.82 C237.94,328.330043 239.492484,334.942476 242.5975,339.6575 C245.702516,344.372524 250.359969,346.73 256.57,346.73 C261.323357,346.73 265.137486,345.445846 268.0125,342.8775 C270.887514,340.309154 272.861661,336.610024 273.935,331.78 L289.92,331.78 Z M292.91,358 L292.91,301.42 L306.94,301.42 L306.94,308.205 C308.166673,306.288324 309.450827,304.793339 310.7925,303.72 C312.134173,302.646661 313.51416,301.822503 314.9325,301.2475 C316.35084,300.672497 317.788326,300.308334 319.245,300.155 C320.701674,300.001666 322.196659,299.925 323.73,299.925 L325.685,299.925 L325.685,315.22 C324.304993,314.989999 322.925007,314.875 321.545,314.875 C312.421621,314.875 307.86,319.436621 307.86,328.56 L307.86,358 L292.91,358 Z M365.935,358 L365.935,350.065 C362.101648,356.351698 356.236706,359.495 348.34,359.495 C345.503319,359.495 342.915845,358.996672 340.5775,358 C338.239155,357.003328 336.226675,355.585009 334.54,353.745 C332.853325,351.904991 331.530838,349.720013 330.5725,347.19 C329.614162,344.659987 329.135,341.823349 329.135,338.68 L329.135,301.42 L344.085,301.42 L344.085,336.38 C344.085,343.433369 347.266635,346.96 353.63,346.96 C357.463352,346.96 360.35749,345.752512 362.3125,343.3375 C364.26751,340.922488 365.245,337.836685 365.245,334.08 L365.245,301.42 L380.08,301.42 L380.08,358 L365.935,358 Z M422.285,358 L422.285,323.73 C422.285,319.359978 421.556674,316.408341 420.1,314.875 C418.643326,313.341659 416.151684,312.575 412.625,312.575 C404.881628,312.575 401.01,316.906623 401.01,325.57 L401.01,358 L386.06,358 L386.06,301.42 L400.32,301.42 L400.32,309.7 C402.083342,306.479984 404.421652,304.045842 407.335,302.3975 C410.248348,300.749158 414.004977,299.925 418.605,299.925 C421.288347,299.925 423.779988,300.327496 426.08,301.1325 C428.380012,301.937504 430.354158,303.144992 432.0025,304.755 C433.650842,306.365008 434.954162,308.339155 435.9125,310.6775 C436.870838,313.015845 437.35,315.718318 437.35,318.785 L437.35,358 L422.285,358 Z M494.275,337.53 C493.891665,340.826683 492.952507,343.816653 491.4575,346.5 C489.962493,349.183347 488.065012,351.483324 485.765,353.4 C483.464989,355.316676 480.839181,356.811661 477.8875,357.885 C474.935819,358.958339 471.735017,359.495 468.285,359.495 C464.451648,359.495 460.944183,358.862506 457.7625,357.5975 C454.580817,356.332494 451.840012,354.415846 449.54,351.8475 C447.239988,349.279154 445.457506,346.097519 444.1925,342.3025 C442.927494,338.507481 442.295,334.080025 442.295,329.02 C442.295,323.959975 442.927494,319.590018 444.1925,315.91 C445.457506,312.229982 447.239988,309.220845 449.54,306.8825 C451.840012,304.544155 454.61915,302.800006 457.8775,301.65 C461.13585,300.499994 464.758313,299.925 468.745,299.925 C472.425018,299.925 475.779152,300.423328 478.8075,301.42 C481.835848,302.416672 484.480822,303.873324 486.7425,305.79 C489.004178,307.706676 490.78666,310.006653 492.09,312.69 C493.39334,315.373347 494.159999,318.363317 494.39,321.66 L479.325,321.66 C478.941665,318.746652 477.77251,316.465842 475.8175,314.8175 C473.86249,313.169158 471.466681,312.345 468.63,312.345 C467.019992,312.345 465.525007,312.613331 464.145,313.15 C462.764993,313.686669 461.557505,314.587494 460.5225,315.8525 C459.487495,317.117506 458.663336,318.804156 458.05,320.9125 C457.436664,323.020844 457.13,325.608318 457.13,328.675 C457.13,334.885031 458.241656,339.484985 460.465,342.475 C462.688344,345.465015 465.256652,346.96 468.17,346.96 C471.083348,346.96 473.57499,346.155008 475.645,344.545 C477.71501,342.934992 478.903332,340.596682 479.21,337.53 L494.275,337.53 Z M534.295,358 L534.295,322.925 C534.295,318.631645 533.547507,315.699175 532.0525,314.1275 C530.557493,312.555825 528.085017,311.77 524.635,311.77 C522.794991,311.77 521.146674,312.134163 519.69,312.8625 C518.233326,313.590837 517.006672,314.587494 516.01,315.8525 C515.013328,317.117506 514.265836,318.574158 513.7675,320.2225 C513.269164,321.870842 513.02,323.653324 513.02,325.57 L513.02,358 L498.07,358 L498.07,280.72 L513.02,280.72 L513.02,308.78 C513.556669,307.553327 514.380828,306.384172 515.4925,305.2725 C516.604172,304.160828 517.888326,303.221671 519.345,302.455 C520.801674,301.68833 522.411658,301.075002 524.175,300.615 C525.938342,300.154998 527.778324,299.925 529.695,299.925 C535.521696,299.925 540.255815,301.515817 543.8975,304.6975 C547.539185,307.879183 549.36,312.306638 549.36,317.98 L549.36,358 L534.295,358 Z" id="Crunch" fill="#152934"></path>
        </g>
    </g>
</svg>